<?xml version="1.0" standalone="no"?>
<!DOCTYPE svg PUBLIC "-//W3C//DTD SVG 20010904//EN"
 "http://www.w3.org/TR/2001/REC-SVG-20010904/DTD/svg10.dtd">
<svg version="1.0" xmlns="http://www.w3.org/2000/svg"
 width="512.000000pt" height="512.000000pt" viewBox="0 0 512.000000 512.000000"
 preserveAspectRatio="xMidYMid meet">

<g transform="translate(0.000000,512.000000) scale(0.100000,-0.100000)"
fill="#000000" stroke="none">
<path d="M2478 5108 c-9 -7 -264 -312 -568 -678 l-552 -665 -347 -200 c-190
-110 -363 -210 -383 -223 -53 -33 -81 -83 -82 -145 0 -48 7 -65 94 -217 52
-90 96 -168 98 -172 2 -4 -109 -8 -246 -8 -243 0 -250 -1 -283 -23 -54 -36
-61 -73 -57 -292 2 -156 6 -196 20 -221 27 -50 70 -64 192 -64 61 0 106 -4
106 -10 0 -30 122 -706 131 -721 21 -40 92 -38 122 3 l20 26 -61 349 c-33 191
-59 349 -58 351 2 1 873 1 1937 0 l1935 -3 -175 -1012 c-97 -557 -181 -1017
-187 -1023 -7 -7 -507 -9 -1584 -8 l-1575 3 -88 515 c-63 365 -94 522 -106
540 -40 56 -131 28 -131 -40 0 -33 164 -991 180 -1050 11 -43 62 -93 109 -109
25 -8 465 -11 1625 -11 1527 0 1593 1 1632 19 46 21 78 57 93 104 9 28 361
2044 361 2068 0 5 48 9 106 9 122 0 165 14 192 64 14 25 18 65 20 221 4 219
-3 256 -57 292 -33 22 -41 23 -265 23 l-231 0 52 33 c28 17 60 43 71 57 30 38
45 103 33 145 -12 45 -696 1234 -723 1258 -47 40 -123 6 -121 -54 0 -26 84
-179 347 -632 190 -329 346 -605 346 -612 0 -7 -28 -29 -62 -48 -35 -20 -101
-58 -148 -86 l-85 -51 -440 0 -441 0 -287 498 c-349 605 -320 558 -359 582
-61 37 -100 28 -243 -54 -775 -445 -1202 -696 -1218 -718 -11 -14 -22 -46 -24
-72 -5 -41 -1 -54 46 -136 28 -49 51 -92 51 -95 0 -3 -67 -5 -148 -5 l-148 0
-108 186 c-59 102 -106 193 -104 201 2 9 493 299 1093 645 1461 844 1591 918
1603 918 6 0 45 -60 87 -132 81 -142 103 -168 142 -168 32 0 73 42 73 76 0 24
-68 152 -153 287 -51 82 -151 111 -235 68 -20 -10 -381 -217 -801 -460 -420
-243 -765 -440 -766 -439 -1 2 188 232 421 512 364 437 424 513 424 541 0 57
-69 96 -112 63z m312 -1820 c146 -253 267 -465 268 -469 2 -5 -364 -9 -830 -9
l-833 0 -60 104 c-32 57 -59 107 -60 111 0 7 1233 724 1245 724 3 0 124 -207
270 -461z m2020 -788 l0 -150 -2250 0 -2250 0 0 150 0 150 2250 0 2250 0 0
-150z"/>
<path d="M3116 4270 c-107 -43 -176 -146 -175 -260 1 -119 50 -200 153 -250
60 -30 72 -32 138 -28 110 7 186 56 236 152 22 42 27 64 26 126 0 64 -4 83
-29 128 -50 93 -130 143 -235 149 -48 2 -78 -2 -114 -17z m141 -141 c42 -16
72 -48 84 -92 20 -76 -46 -157 -129 -157 -35 0 -92 36 -109 70 -31 61 -1 149
60 175 39 17 57 18 94 4z"/>
<path d="M3590 3475 c-57 -18 -122 -73 -157 -132 -39 -68 -44 -172 -11 -244
49 -108 143 -169 258 -169 237 1 367 280 213 459 -71 83 -200 120 -303 86z"/>
<path d="M2507 1990 c-61 -19 -92 -58 -207 -259 -63 -110 -118 -201 -121 -201
-4 0 -12 21 -19 46 -8 26 -23 52 -36 60 -34 23 -83 14 -107 -18 l-21 -28 39
-137 c32 -113 45 -144 71 -170 18 -18 41 -33 52 -33 11 0 80 14 153 31 143 34
179 55 179 104 0 15 -11 37 -26 52 -22 22 -31 25 -72 20 -26 -3 -55 -9 -65
-12 -11 -5 24 66 97 191 80 139 121 200 134 202 16 2 34 -23 93 -125 83 -145
107 -173 144 -173 35 0 75 42 75 77 0 17 -35 87 -86 176 -64 111 -95 154 -123
172 -41 28 -111 39 -154 25z"/>
<path d="M2945 1391 c-38 -16 -55 -48 -95 -181 -22 -73 -40 -139 -40 -146 0
-7 11 -25 23 -40 17 -20 32 -27 56 -26 43 1 66 23 81 78 7 24 15 44 19 44 13
0 223 -379 219 -397 -3 -16 -19 -18 -175 -23 -188 -5 -197 -8 -209 -65 -4 -22
0 -38 16 -58 l22 -28 198 3 c183 3 201 5 227 24 60 45 92 119 79 187 -5 27
-63 133 -221 403 l-25 42 38 -9 c68 -16 99 -11 121 17 26 33 27 65 3 94 -13
16 -52 30 -157 56 -150 37 -150 37 -180 25z"/>
<path d="M1937 1088 c-39 -40 -179 -295 -184 -337 -7 -48 10 -102 45 -143 46
-54 67 -58 338 -58 l246 0 -36 -40 c-19 -22 -38 -51 -42 -65 -13 -50 50 -105
99 -86 21 9 95 81 185 183 44 50 52 84 29 124 -7 12 -55 67 -108 123 -81 85
-100 101 -126 101 -40 0 -71 -27 -79 -67 -5 -27 0 -37 36 -77 l43 -46 -234 2
c-217 3 -234 4 -237 21 -2 10 30 78 72 151 44 76 76 144 76 160 0 34 -41 76
-75 76 -14 0 -36 -10 -48 -22z"/>
</g>
</svg>
