<svg id="visual" viewBox="0 0 1920 1080" width="1920" height="1080" xmlns="http://www.w3.org/2000/svg" xmlns:xlink="http://www.w3.org/1999/xlink" version="1.1"><path d="M0 800L45.7 790.2C91.3 780.3 182.7 760.7 274.2 741.7C365.7 722.7 457.3 704.3 548.8 698C640.3 691.7 731.7 697.3 823 701.5C914.3 705.7 1005.7 708.3 1097 704.5C1188.3 700.7 1279.7 690.3 1371.2 704.3C1462.7 718.3 1554.3 756.7 1645.8 752.2C1737.3 747.7 1828.7 700.3 1874.3 676.7L1920 653L1920 1081L1874.3 1081C1828.7 1081 1737.3 1081 1645.8 1081C1554.3 1081 1462.7 1081 1371.2 1081C1279.7 1081 1188.3 1081 1097 1081C1005.7 1081 914.3 1081 823 1081C731.7 1081 640.3 1081 548.8 1081C457.3 1081 365.7 1081 274.2 1081C182.7 1081 91.3 1081 45.7 1081L0 1081Z" fill="#c62368"></path><path d="M0 731L45.7 748.2C91.3 765.3 182.7 799.7 274.2 798.7C365.7 797.7 457.3 761.3 548.8 760C640.3 758.7 731.7 792.3 823 792.5C914.3 792.7 1005.7 759.3 1097 765.8C1188.3 772.3 1279.7 818.7 1371.2 840.5C1462.7 862.3 1554.3 859.7 1645.8 840C1737.3 820.3 1828.7 783.7 1874.3 765.3L1920 747L1920 1081L1874.3 1081C1828.7 1081 1737.3 1081 1645.8 1081C1554.3 1081 1462.7 1081 1371.2 1081C1279.7 1081 1188.3 1081 1097 1081C1005.7 1081 914.3 1081 823 1081C731.7 1081 640.3 1081 548.8 1081C457.3 1081 365.7 1081 274.2 1081C182.7 1081 91.3 1081 45.7 1081L0 1081Z" fill="#8b2970"></path><path d="M0 821L45.7 821.2C91.3 821.3 182.7 821.7 274.2 816C365.7 810.3 457.3 798.7 548.8 804.7C640.3 810.7 731.7 834.3 823 844C914.3 853.7 1005.7 849.3 1097 841C1188.3 832.7 1279.7 820.3 1371.2 832.3C1462.7 844.3 1554.3 880.7 1645.8 898C1737.3 915.3 1828.7 913.7 1874.3 912.8L1920 912L1920 1081L1874.3 1081C1828.7 1081 1737.3 1081 1645.8 1081C1554.3 1081 1462.7 1081 1371.2 1081C1279.7 1081 1188.3 1081 1097 1081C1005.7 1081 914.3 1081 823 1081C731.7 1081 640.3 1081 548.8 1081C457.3 1081 365.7 1081 274.2 1081C182.7 1081 91.3 1081 45.7 1081L0 1081Z" fill="#4f2b64"></path><path d="M0 914L45.7 913C91.3 912 182.7 910 274.2 905.2C365.7 900.3 457.3 892.7 548.8 900.2C640.3 907.7 731.7 930.3 823 943.5C914.3 956.7 1005.7 960.3 1097 950.8C1188.3 941.3 1279.7 918.7 1371.2 913.2C1462.7 907.7 1554.3 919.3 1645.8 920.8C1737.3 922.3 1828.7 913.7 1874.3 909.3L1920 905L1920 1081L1874.3 1081C1828.7 1081 1737.3 1081 1645.8 1081C1554.3 1081 1462.7 1081 1371.2 1081C1279.7 1081 1188.3 1081 1097 1081C1005.7 1081 914.3 1081 823 1081C731.7 1081 640.3 1081 548.8 1081C457.3 1081 365.7 1081 274.2 1081C182.7 1081 91.3 1081 45.7 1081L0 1081Z" fill="#1c2247"></path><path d="M0 984L45.7 990.5C91.3 997 182.7 1010 274.2 1004.2C365.7 998.3 457.3 973.7 548.8 970.2C640.3 966.7 731.7 984.3 823 986C914.3 987.7 1005.7 973.3 1097 978.2C1188.3 983 1279.7 1007 1371.2 1010.8C1462.7 1014.7 1554.3 998.3 1645.8 989.7C1737.3 981 1828.7 980 1874.3 979.5L1920 979L1920 1081L1874.3 1081C1828.7 1081 1737.3 1081 1645.8 1081C1554.3 1081 1462.7 1081 1371.2 1081C1279.7 1081 1188.3 1081 1097 1081C1005.7 1081 914.3 1081 823 1081C731.7 1081 640.3 1081 548.8 1081C457.3 1081 365.7 1081 274.2 1081C182.7 1081 91.3 1081 45.7 1081L0 1081Z" fill="#001122"></path></svg>