<svg id="visual" viewBox="0 0 1920 1080" width="1920" height="1080" xmlns="http://www.w3.org/2000/svg" xmlns:xlink="http://www.w3.org/1999/xlink" version="1.1"><path d="M0 728L45.7 713.3C91.3 698.7 182.7 669.3 274.2 668.7C365.7 668 457.3 696 548.8 696.5C640.3 697 731.7 670 823 668C914.3 666 1005.7 689 1097 696.5C1188.3 704 1279.7 696 1371.2 704.5C1462.7 713 1554.3 738 1645.8 731.5C1737.3 725 1828.7 687 1874.3 668L1920 649L1920 1081L1874.3 1081C1828.7 1081 1737.3 1081 1645.8 1081C1554.3 1081 1462.7 1081 1371.2 1081C1279.7 1081 1188.3 1081 1097 1081C1005.7 1081 914.3 1081 823 1081C731.7 1081 640.3 1081 548.8 1081C457.3 1081 365.7 1081 274.2 1081C182.7 1081 91.3 1081 45.7 1081L0 1081Z" fill="#ff5757"></path><path d="M0 861L45.7 839.3C91.3 817.7 182.7 774.3 274.2 758.5C365.7 742.7 457.3 754.3 548.8 753.8C640.3 753.3 731.7 740.7 823 748.2C914.3 755.7 1005.7 783.3 1097 794.3C1188.3 805.3 1279.7 799.7 1371.2 791.5C1462.7 783.3 1554.3 772.7 1645.8 769.3C1737.3 766 1828.7 770 1874.3 772L1920 774L1920 1081L1874.3 1081C1828.7 1081 1737.3 1081 1645.8 1081C1554.3 1081 1462.7 1081 1371.2 1081C1279.7 1081 1188.3 1081 1097 1081C1005.7 1081 914.3 1081 823 1081C731.7 1081 640.3 1081 548.8 1081C457.3 1081 365.7 1081 274.2 1081C182.7 1081 91.3 1081 45.7 1081L0 1081Z" fill="#c44c49"></path><path d="M0 865L45.7 866.2C91.3 867.3 182.7 869.7 274.2 858.8C365.7 848 457.3 824 548.8 818C640.3 812 731.7 824 823 825.7C914.3 827.3 1005.7 818.7 1097 826.3C1188.3 834 1279.7 858 1371.2 855.2C1462.7 852.3 1554.3 822.7 1645.8 822.7C1737.3 822.7 1828.7 852.3 1874.3 867.2L1920 882L1920 1081L1874.3 1081C1828.7 1081 1737.3 1081 1645.8 1081C1554.3 1081 1462.7 1081 1371.2 1081C1279.7 1081 1188.3 1081 1097 1081C1005.7 1081 914.3 1081 823 1081C731.7 1081 640.3 1081 548.8 1081C457.3 1081 365.7 1081 274.2 1081C182.7 1081 91.3 1081 45.7 1081L0 1081Z" fill="#8b403c"></path><path d="M0 874L45.7 888C91.3 902 182.7 930 274.2 929.8C365.7 929.7 457.3 901.3 548.8 899.8C640.3 898.3 731.7 923.7 823 924.8C914.3 926 1005.7 903 1097 906.5C1188.3 910 1279.7 940 1371.2 943.5C1462.7 947 1554.3 924 1645.8 907.7C1737.3 891.3 1828.7 881.7 1874.3 876.8L1920 872L1920 1081L1874.3 1081C1828.7 1081 1737.3 1081 1645.8 1081C1554.3 1081 1462.7 1081 1371.2 1081C1279.7 1081 1188.3 1081 1097 1081C1005.7 1081 914.3 1081 823 1081C731.7 1081 640.3 1081 548.8 1081C457.3 1081 365.7 1081 274.2 1081C182.7 1081 91.3 1081 45.7 1081L0 1081Z" fill="#56322f"></path><path d="M0 968L45.7 966.2C91.3 964.3 182.7 960.7 274.2 962.5C365.7 964.3 457.3 971.7 548.8 981.3C640.3 991 731.7 1003 823 997.8C914.3 992.7 1005.7 970.3 1097 971.5C1188.3 972.7 1279.7 997.3 1371.2 1008C1462.7 1018.7 1554.3 1015.3 1645.8 1004.2C1737.3 993 1828.7 974 1874.3 964.5L1920 955L1920 1081L1874.3 1081C1828.7 1081 1737.3 1081 1645.8 1081C1554.3 1081 1462.7 1081 1371.2 1081C1279.7 1081 1188.3 1081 1097 1081C1005.7 1081 914.3 1081 823 1081C731.7 1081 640.3 1081 548.8 1081C457.3 1081 365.7 1081 274.2 1081C182.7 1081 91.3 1081 45.7 1081L0 1081Z" fill="#222222"></path></svg>